<svg xmlns="http://www.w3.org/2000/svg" xmlns:xlink="http://www.w3.org/1999/xlink" id="Layer_1" x="0" y="0" version="1.1" viewBox="0 0 512 512" style="enable-background:new 0 0 512 512" xml:space="preserve"><rect x="219.88" y="49.844" style="fill:#dfdfe0" width="99.473" height="33.391"/><polygon style="fill:#ceced1" points="188.807 163.76 141.447 163.76 141.447 17.417 188.807 17.417 236.167 17.417 236.167 163.76"/><polygon style="fill:#bebec1" points="212.487 163.76 188.807 163.76 188.807 17.417 212.487 17.417 236.167 17.417 236.167 163.76"/><path style="fill:#d0f0ea" d="M293.832,512H83.784l-15.821-21.098c-59.385-79.191-55.245-189.138,9.929-263.638l25.496-29.145	c0,0,19.782-24.621,85.419-24.621s85.419,24.621,85.419,24.621l25.496,29.145c65.173,74.499,69.315,184.447,9.929,263.638	L293.832,512z"/><g><path style="fill:#92e0d3" d="M299.723,227.266l-25.496-29.145c0,0-19.782-24.621-85.419-24.621V512h105.023l15.821-21.098 C369.038,411.713,364.896,301.765,299.723,227.266z"/><path style="fill:#92e0d3" d="M26.316,355.272c-2.247,47.363,11.519,95.455,41.647,135.63L83.784,512h210.048l15.821-21.098 c30.128-40.175,43.894-88.267,41.647-135.63H26.316z"/></g><path style="fill:#6db2a6" d="M188.807,355.272V512h105.023l15.821-21.098c30.128-40.175,43.894-88.267,41.647-135.63H188.807z"/><rect x="172.108" y="178.822" style="fill:#ededee" width="33.391" height="246.317"/><rect x="188.804" y="178.822" style="fill:#dfdfe0" width="16.696" height="246.317"/><polygon style="fill:#9b9ba1" points="188.807 115.664 103.388 115.664 103.388 198.121 188.807 198.121 274.227 198.121 274.227 115.664"/><polygon style="fill:#757576" points="231.517 115.664 188.807 115.664 188.807 198.121 231.517 198.121 274.227 198.121 274.227 115.664"/><ellipse style="fill:#dc90cc" cx="391.111" cy="66.54" rx="94.82" ry="66.54"/><path style="fill:#c0369e" d="M485.928,66.54c0,36.749-42.45,66.54-94.815,66.54s-94.815-29.792-94.815-66.54	C319.355,66.54,444.988,66.54,485.928,66.54z"/></svg>